<svg width="51" height="115" viewBox="0 0 51 115" fill="none" xmlns="http://www.w3.org/2000/svg">
<path fill-rule="evenodd" clip-rule="evenodd" d="M16 3C16 1.34314 17.3433 0 19 0C20.6567 0 22 1.34314 22 3V23.1818H25V21C25 19.3431 26.3433 18 28 18C29.6567 18 31 19.3431 31 21V23.4659C33.886 23.8333 36.4011 24.5568 38.5454 25.6364C41.7954 27.25 44.2273 29.4432 45.8408 32.2159C47.4546 34.9659 48.2615 38.0682 48.2615 41.5227C48.2615 44.4318 47.7273 46.8864 46.6592 48.8864C45.5908 50.8636 44.1592 52.4546 42.3635 53.6591C40.5908 54.8409 38.6365 55.7046 36.5 56.25V56.9318C38.8181 57.0454 41.0796 57.7954 43.2842 59.1818C45.5115 60.5454 47.3523 62.4886 48.8069 65.0114C50.2615 67.5341 50.9885 70.6023 50.9885 74.2159C50.9885 77.7841 50.1477 80.9886 48.4658 83.8296C46.8069 86.6477 44.2385 88.8864 40.7615 90.5454C38.0815 91.8066 34.8276 92.5818 31 92.871V94C31 95.6569 29.6567 97 28 97C26.3433 97 25 95.6569 25 94V93H22V112C22 113.657 20.6567 115 19 115C17.3433 115 16 113.657 16 112V93H0.67041V23.1818H16V3ZM31 83.6366C33.7161 83.201 35.7996 82.3335 37.25 81.0341C39.4319 79.0796 40.5227 76.6364 40.5227 73.7046C40.5227 71.5 39.9658 69.4773 38.8523 67.6364C37.7385 65.7954 36.1477 64.3296 34.0796 63.2386C33.1355 62.7351 32.1089 62.3477 31 62.0765V83.6366ZM25 61.6023V83.9659H22V61.6023H25ZM31 52.3319C31.2346 52.2355 31.4656 52.1323 31.6931 52.0227C33.6023 51.1136 35.1135 49.8409 36.2273 48.2046C37.3635 46.5454 37.9319 44.5909 37.9319 42.3409C37.9319 39.4546 36.9204 37.0341 34.8977 35.0796C33.8748 34.0909 32.5754 33.3523 31 32.8638V52.3319ZM25 32.1477V53.3864H22V32.1477H25ZM11.2046 32.1477H16V53.3864H11.2046V32.1477ZM11.2046 61.6023H16V83.9659H11.2046V61.6023Z" fill="#BEBEBE"/>
</svg>
