<svg width="552" height="225" viewBox="0 0 552 225" fill="none" xmlns="http://www.w3.org/2000/svg">
<path fill-rule="evenodd" clip-rule="evenodd" d="M232.882 211.671C244.821 220.486 259.211 224.929 276.053 225C292.824 225 307.179 220.592 319.118 211.777C331.057 202.891 340.188 190.059 346.513 173.282C352.838 156.434 356 136.102 356 112.287C356 88.6138 352.802 68.4242 346.406 51.718C340.082 34.9408 330.95 22.1446 319.011 13.3294C307.073 4.44313 292.753 0 276.053 0C259.353 0 244.998 4.40758 232.989 13.2228C221.05 22.0379 211.883 34.8341 205.487 51.6114C199.162 68.3886 196 88.6138 196 112.287C196 136.031 199.162 156.327 205.487 173.175C211.812 190.024 220.943 202.855 232.882 211.671ZM310.697 174.882C302.382 189.313 290.835 196.528 276.053 196.528C266.175 196.528 257.719 193.329 250.684 186.931C243.648 180.462 238.212 170.972 234.374 158.46C230.608 145.877 227 130.486 227 112.287C227.071 85.0592 233.024 64.1943 241.41 49.6919C249.795 35.1896 261.343 27.9384 276.053 27.9384C285.789 27.9384 294.175 31.2085 301.21 37.7488C308.316 44.218 313.753 53.7441 317.519 66.327C321.356 78.8389 325.5 94.1588 325.5 112.287C325.5 139.585 319.082 160.45 310.697 174.882ZM0.791016 182.386V155.753L95.0737 6.81818H104.449H116.061H135.663V154.474H164.534V182.386H135.663V225H104.236V182.386H0.791016ZM102.744 46.0227H104.449V154.474H35.3081V152.77L102.744 46.0227ZM387.732 182.386V155.753L482.015 6.81818H491.39H503.002H522.605V154.474H551.475V182.386H522.605V225H491.177V182.386H387.732ZM489.686 46.0227H491.39V154.474H422.249V152.77L489.686 46.0227ZM257.5 100.08C257.5 98.7017 257.985 97.5198 258.955 96.535C259.924 95.5501 261.106 95.0653 262.5 95.0804C263.864 95.0653 265.03 95.5501 266 96.535C266.97 97.5198 267.455 98.7017 267.455 100.08C267.455 101.414 266.97 102.573 266 103.558C265.03 104.558 263.864 105.065 262.5 105.08C261.576 105.065 260.735 104.823 259.977 104.353C259.22 103.899 258.614 103.293 258.159 102.535C257.72 101.793 257.5 100.974 257.5 100.08ZM282.409 100.08C282.409 98.7017 282.894 97.5198 283.864 96.535C284.848 95.5501 286.03 95.0653 287.409 95.0804C288.773 95.0653 289.939 95.5501 290.909 96.535C291.894 97.5198 292.386 98.7017 292.386 100.08C292.386 101.414 291.894 102.573 290.909 103.558C289.939 104.558 288.773 105.065 287.409 105.08C286.5 105.065 285.667 104.823 284.909 104.353C284.152 103.899 283.545 103.293 283.091 102.535C282.636 101.793 282.409 100.974 282.409 100.08ZM276.977 115.3C282.659 115.3 287.879 116.05 292.636 117.55C297.409 119.065 301.818 121.315 305.864 124.3V132.05C304.364 130.899 302.523 129.823 300.341 128.823C298.174 127.823 295.795 126.952 293.205 126.209C290.629 125.482 287.955 124.906 285.182 124.482C282.409 124.073 279.674 123.868 276.977 123.868C273.386 123.868 269.75 124.224 266.068 124.937C262.386 125.664 258.977 126.641 255.841 127.868C252.689 129.111 250.114 130.505 248.114 132.05V124.3C252.159 121.315 256.561 119.065 261.318 117.55C266.091 116.05 271.311 115.3 276.977 115.3Z" fill="white"/>
</svg>
