<svg width="535" height="222" viewBox="0 0 535 222" fill="none" xmlns="http://www.w3.org/2000/svg">
<path fill-rule="evenodd" clip-rule="evenodd" d="M221.882 206.026C233.821 214.606 248.211 218.931 265.053 219C281.824 219 296.179 214.71 308.118 206.13C320.057 197.481 329.188 184.991 335.513 168.661C341.838 152.262 345 132.473 345 109.292C345 86.2507 341.802 66.5995 335.406 50.3389C329.082 34.009 319.95 21.554 308.011 12.9739C296.073 4.32464 281.753 0 265.053 0C248.353 0 233.998 4.29005 221.989 12.8702C210.05 21.4502 200.883 33.9052 194.487 50.2351C188.162 66.5649 185 86.2507 185 109.292C185 132.403 188.162 152.158 194.487 168.557C200.812 184.956 209.943 197.446 221.882 206.026ZM299.697 170.218C291.382 184.264 279.835 191.288 265.053 191.288C255.175 191.288 246.719 188.174 239.684 181.946C232.648 175.65 227.212 166.412 223.374 154.234C219.608 141.987 216 127.006 216 109.292C216.071 82.791 222.024 62.4825 230.41 48.3668C238.795 34.2512 250.343 27.1934 265.053 27.1934C274.789 27.1934 283.175 30.3763 290.21 36.7422C297.316 43.0389 302.753 52.3109 306.519 64.5583C310.356 76.7365 314.5 91.6479 314.5 109.292C314.5 135.863 308.082 156.172 299.697 170.218ZM72.016 221.983C58.6637 221.983 46.6609 219.426 36.0075 214.312C25.4251 209.128 16.9734 202.026 10.6523 193.006C4.33132 183.986 0.957742 173.688 0.531605 162.111H32.4918C33.2731 171.486 37.4279 179.192 44.9563 185.229C52.4847 191.266 61.5046 194.284 72.016 194.284C80.3967 194.284 87.8185 192.366 94.2816 188.531C100.816 184.625 105.929 179.263 109.623 172.445C113.387 165.626 115.269 157.849 115.269 149.114C115.269 140.236 113.351 132.317 109.516 125.357C105.681 118.396 100.39 112.928 93.6424 108.95C86.9663 104.973 79.2958 102.949 70.631 102.878C64.0259 102.878 57.3853 104.014 50.7092 106.287C44.033 108.56 38.6353 111.543 34.516 115.236L4.36683 110.761L16.6183 0.818175H136.576V29.0497H43.9975L37.0728 90.0938H38.3512C42.6126 85.9744 48.2589 82.5298 55.2901 79.7599C62.3924 76.9901 69.9918 75.6051 78.0884 75.6051C91.3697 75.6051 103.195 78.7656 113.564 85.0866C124.005 91.4077 132.208 100.037 138.174 110.974C144.211 121.841 147.194 134.341 147.123 148.474C147.194 162.608 143.998 175.214 137.534 186.294C131.142 197.374 122.265 206.109 110.901 212.501C99.6083 218.822 86.6467 221.983 72.016 221.983ZM246.5 97.0805C246.5 95.7017 246.985 94.5199 247.955 93.535C248.924 92.5501 250.106 92.0653 251.5 92.0805C252.864 92.0653 254.03 92.5501 255 93.535C255.97 94.5199 256.455 95.7017 256.455 97.0805C256.455 98.4138 255.97 99.5729 255 100.558C254.03 101.558 252.864 102.065 251.5 102.08C250.576 102.065 249.735 101.823 248.977 101.353C248.22 100.899 247.614 100.293 247.159 99.535C246.72 98.7926 246.5 97.9744 246.5 97.0805ZM271.409 97.0805C271.409 95.7017 271.894 94.5199 272.864 93.535C273.848 92.5502 275.03 92.0653 276.409 92.0805C277.773 92.0653 278.939 92.5502 279.909 93.535C280.894 94.5199 281.386 95.7017 281.386 97.0805C281.386 98.4138 280.894 99.5729 279.909 100.558C278.939 101.558 277.773 102.065 276.409 102.08C275.5 102.065 274.667 101.823 273.909 101.353C273.152 100.899 272.545 100.293 272.091 99.535C271.636 98.7926 271.409 97.9744 271.409 97.0805ZM265.977 112.3C271.659 112.3 276.879 113.05 281.636 114.55C286.409 116.065 290.818 118.315 294.864 121.3V129.05C293.364 127.899 291.523 126.823 289.341 125.823C287.174 124.823 284.795 123.952 282.205 123.209C279.629 122.482 276.955 121.906 274.182 121.482C271.409 121.073 268.674 120.868 265.977 120.868C262.386 120.868 258.75 121.224 255.068 121.937C251.386 122.664 247.977 123.641 244.841 124.868C241.689 126.111 239.114 127.505 237.114 129.05V121.3C241.159 118.315 245.561 116.065 250.318 114.55C255.091 113.05 260.311 112.3 265.977 112.3ZM436.5 96.0805C436.5 94.7017 436.985 93.5198 437.955 92.535C438.924 91.5501 440.106 91.0653 441.5 91.0805C442.864 91.0653 444.03 91.5501 445 92.535C445.97 93.5198 446.455 94.7017 446.455 96.0805C446.455 97.4138 445.97 98.5729 445 99.5577C444.03 100.558 442.864 101.065 441.5 101.08C440.576 101.065 439.735 100.823 438.977 100.353C438.22 99.8986 437.614 99.2926 437.159 98.535C436.72 97.7926 436.5 96.9744 436.5 96.0805ZM461.409 96.0805C461.409 94.7017 461.894 93.5198 462.864 92.535C463.848 91.5501 465.03 91.0653 466.409 91.0805C467.773 91.0653 468.939 91.5501 469.909 92.535C470.894 93.5199 471.386 94.7017 471.386 96.0805C471.386 97.4138 470.894 98.5729 469.909 99.5577C468.939 100.558 467.773 101.065 466.409 101.08C465.5 101.065 464.667 100.823 463.909 100.353C463.152 99.8986 462.545 99.2926 462.091 98.535C461.636 97.7926 461.409 96.9744 461.409 96.0805ZM455.977 111.3C461.659 111.3 466.879 112.05 471.636 113.55C476.409 115.065 480.818 117.315 484.864 120.3V128.05C483.364 126.899 481.523 125.823 479.341 124.823C477.174 123.823 474.795 122.952 472.205 122.209C469.629 121.482 466.955 120.906 464.182 120.482C461.409 120.073 458.674 119.868 455.977 119.868C452.386 119.868 448.75 120.224 445.068 120.937C441.386 121.664 437.977 122.641 434.841 123.868C431.689 125.111 429.114 126.505 427.114 128.05V120.3C431.159 117.315 435.561 115.065 440.318 113.55C445.091 112.05 450.311 111.3 455.977 111.3ZM411.882 204.145C423.821 212.646 438.211 216.931 455.053 217C471.824 217 486.179 212.749 498.118 204.247C510.057 195.677 519.188 183.302 525.513 167.121C531.838 150.872 535 131.263 535 108.294C535 85.463 531.802 65.9913 525.406 49.8792C519.082 33.6984 509.95 21.3572 498.011 12.8554C486.073 4.28515 471.753 0 455.053 0C438.353 0 423.998 4.25087 411.989 12.7526C400.05 21.2543 390.883 33.5956 384.487 49.7763C378.162 65.957 375 85.463 375 108.294C375 131.194 378.162 150.769 384.487 167.018C390.812 183.267 399.943 195.643 411.882 204.145ZM489.697 168.664C481.382 182.582 469.835 189.541 455.053 189.541C445.175 189.541 436.719 186.455 429.684 180.285C422.648 174.046 417.212 164.893 413.374 152.826C409.608 140.69 406 125.846 406 108.294C406.071 82.0349 412.024 61.9118 420.41 47.9251C428.795 33.9384 440.343 26.945 455.053 26.945C464.789 26.945 473.175 30.0989 480.21 36.4066C487.316 42.6458 492.753 51.8332 496.519 63.9687C500.356 76.0357 504.5 90.8109 504.5 108.294C504.5 134.622 498.082 154.745 489.697 168.664Z" fill="white"/>
</svg>
